<svg xmlns="http://www.w3.org/2000/svg" xmlns:xlink="http://www.w3.org/1999/xlink" width="1080" zoomAndPan="magnify" viewBox="0 0 810 809.999993" height="1080" preserveAspectRatio="xMidYMid meet" version="1.0"><defs><g/><clipPath id="bb27e268d7"><path d="M 224.988281 224.988281 L 585.011719 224.988281 L 585.011719 585.011719 L 224.988281 585.011719 Z M 224.988281 224.988281 " clip-rule="nonzero"/></clipPath><clipPath id="beb4eb0f65"><path d="M 405 224.988281 C 305.582031 224.988281 224.988281 305.582031 224.988281 405 C 224.988281 504.417969 305.582031 585.011719 405 585.011719 C 504.417969 585.011719 585.011719 504.417969 585.011719 405 C 585.011719 305.582031 504.417969 224.988281 405 224.988281 Z M 405 224.988281 " clip-rule="nonzero"/></clipPath><clipPath id="0f6423e3a5"><path d="M 380.207031 389.148438 L 429.875 389.148438 L 429.875 435.054688 L 380.207031 435.054688 Z M 380.207031 389.148438 " clip-rule="nonzero"/></clipPath></defs><g clip-path="url(#bb27e268d7)"><g clip-path="url(#beb4eb0f65)"><path fill="#f0394c" d="M 224.988281 224.988281 L 585.011719 224.988281 L 585.011719 585.011719 L 224.988281 585.011719 Z M 224.988281 224.988281 " fill-opacity="1" fill-rule="nonzero"/></g></g><g fill="#ffffff" fill-opacity="1"><g transform="translate(353.146497, 367.221738)"><g><path d="M 103.382812 -48.792969 C 103.382812 -57.292969 99.984375 -63.390625 93.484375 -68.691406 C 95.886719 -70.589844 98.386719 -72.289062 100.886719 -74.089844 C 101.085938 -74.1875 101.183594 -74.488281 101.285156 -74.6875 C 101.285156 -74.890625 101.085938 -74.988281 100.886719 -74.988281 C 99.285156 -74.988281 93.1875 -70.988281 91.785156 -70.089844 C 84.386719 -73.589844 78.589844 -74.988281 70.390625 -74.988281 C 68.691406 -74.988281 67.089844 -74.890625 65.390625 -74.789062 C 60.390625 -78.789062 55.792969 -80.289062 49.394531 -80.289062 C 37.496094 -80.289062 25.894531 -75.789062 16.597656 -68.390625 C 8.597656 -61.992188 0.601562 -50.292969 0.601562 -39.695312 C 0.601562 -37.496094 0.898438 -35.195312 1.800781 -33.195312 C 2.199219 -32.394531 3.597656 -29.496094 4.597656 -29.496094 C 4.800781 -29.496094 5 -29.695312 5 -29.894531 C 5 -30.296875 3.097656 -33.296875 2.800781 -33.996094 C 2.101562 -35.894531 1.800781 -37.894531 1.800781 -39.894531 C 1.800781 -49.394531 10.199219 -61.089844 17.199219 -66.890625 C 25.796875 -73.988281 37.59375 -79.089844 48.792969 -79.089844 C 54.691406 -79.089844 58.390625 -77.886719 63.191406 -74.589844 C 48.691406 -72.488281 40.894531 -69.191406 29.296875 -59.992188 C 21.398438 -53.691406 12.597656 -41.792969 12.597656 -31.195312 C 12.597656 -23.296875 17.699219 -18.996094 25.394531 -18.996094 C 35.59375 -18.996094 48.292969 -27.796875 55.09375 -34.792969 C 62.289062 -42.195312 69.089844 -53.292969 69.089844 -63.890625 C 69.089844 -67.589844 67.988281 -70.191406 66.289062 -73.390625 C 67.988281 -73.589844 69.589844 -73.6875 71.289062 -73.6875 C 77.789062 -73.6875 84.488281 -72.089844 90.085938 -68.789062 C 86.289062 -65.789062 82.488281 -62.789062 79.089844 -59.390625 C 71.6875 -51.691406 65.789062 -41.695312 60.089844 -32.796875 C 53.59375 -22.695312 46.792969 -11.398438 36.09375 -5.300781 C 31.695312 -6.5 27.394531 -7.5 22.796875 -7.5 C 17.097656 -7.5 10.597656 -6.5 10.597656 -3.300781 C 10.597656 -0.398438 15.398438 0 19.695312 0 C 26.796875 0 31.09375 -1.101562 37.792969 -3.398438 C 43.09375 -1.699219 48.292969 0 53.890625 0 C 67.589844 0 79.289062 -7.800781 88.785156 -17.097656 C 97.285156 -25.496094 103.382812 -36.695312 103.382812 -48.792969 Z M 98.285156 -52.390625 C 98.285156 -32.996094 72.890625 -1.699219 52.691406 -1.699219 C 48.191406 -1.699219 43.792969 -3 39.59375 -4.300781 C 57.292969 -13.597656 65.089844 -26.894531 74.6875 -43.792969 C 77.789062 -49.191406 80.6875 -54.992188 84.6875 -59.792969 C 86.886719 -62.492188 89.488281 -64.890625 91.988281 -67.289062 C 96.6875 -63.289062 98.285156 -58.492188 98.285156 -52.390625 Z M 67.691406 -63.589844 C 67.691406 -53.492188 60.992188 -42.59375 54.09375 -35.59375 C 47.191406 -28.597656 35.695312 -20.496094 25.394531 -20.496094 C 19.097656 -20.496094 13.898438 -24.097656 13.898438 -30.796875 C 13.898438 -41.59375 22.496094 -52.292969 30.296875 -58.890625 C 40.09375 -67.089844 51.691406 -71.988281 64.390625 -73.289062 C 66.789062 -70.289062 67.691406 -67.390625 67.691406 -63.589844 Z M 33.996094 -4.300781 C 28.796875 -2.300781 25.296875 -1.300781 19.597656 -1.300781 C 15.496094 -1.300781 12.097656 -1.898438 12.097656 -3.300781 C 12.097656 -4.898438 16.296875 -6.199219 23.398438 -6.199219 C 26.996094 -6.199219 30.59375 -5.199219 33.996094 -4.300781 Z M 33.996094 -4.300781 "/></g></g></g><g fill="#ffffff" fill-opacity="1"><g transform="translate(456.835295, 367.221738)"><g/></g></g><g fill="#ffffff" fill-opacity="1"><g transform="translate(482.731371, 367.221738)"><g/></g></g><g fill="#ffffff" fill-opacity="1"><g transform="translate(508.627447, 367.221738)"><g/></g></g><g fill="#ffffff" fill-opacity="1"><g transform="translate(534.523523, 367.221738)"><g/></g></g><g fill="#ffffff" fill-opacity="1"><g transform="translate(349.442481, 507.198089)"><g><path d="M 131.28125 -71.589844 C 131.28125 -72.6875 130.378906 -73.789062 129.179688 -73.789062 C 126.179688 -73.789062 117.582031 -65.890625 115.484375 -63.992188 C 109.082031 -58.089844 103.382812 -51.390625 97.6875 -44.894531 C 88.886719 -34.894531 80.386719 -24.695312 71.789062 -14.496094 C 70.890625 -13.398438 64.691406 -5.898438 63.789062 -5.898438 C 63.191406 -5.898438 62.992188 -6.5 62.992188 -7 C 62.992188 -9.097656 68.691406 -18.097656 69.789062 -19.796875 C 78.988281 -33.894531 89.285156 -47.191406 99.085938 -60.890625 C 99.984375 -62.191406 103.882812 -67.089844 103.882812 -68.789062 C 103.882812 -70.089844 102.785156 -71.089844 101.484375 -71.089844 C 98.183594 -71.089844 91.386719 -65.390625 89.1875 -63.390625 C 79.488281 -54.59375 70.390625 -45.191406 61.191406 -35.894531 C 52.890625 -27.597656 44.492188 -18.796875 34.394531 -12.796875 C 26.296875 -8 15.796875 -3.699219 6.300781 -3.699219 C -3.398438 -3.699219 -9.796875 -7.597656 -11.699219 -17.199219 C -7.597656 -16.097656 -3.597656 -15.398438 0.699219 -15.398438 C 13.296875 -15.398438 27.195312 -20.296875 37.59375 -27.394531 C 44.59375 -32.195312 52.691406 -41.394531 52.691406 -50.390625 C 52.691406 -58.691406 44.09375 -61.589844 37.09375 -61.589844 C 25.394531 -61.589844 12 -55.09375 3.199219 -47.691406 C -6.398438 -39.59375 -11.296875 -31.796875 -13.199219 -19.296875 C -19.597656 -22.097656 -22.496094 -27.296875 -22.496094 -34.195312 C -22.496094 -45.691406 -12.097656 -55.390625 -2.101562 -59.390625 C 2.101562 -61.089844 6.597656 -61.992188 11.097656 -61.992188 C 16.199219 -61.992188 18.496094 -61.390625 19.296875 -61.390625 C 19.597656 -61.390625 20.097656 -61.492188 20.097656 -61.890625 C 20.097656 -62.789062 16.996094 -63.390625 11.898438 -63.390625 C 7.199219 -63.390625 2.601562 -62.492188 -1.800781 -60.890625 C -12.699219 -56.890625 -23.996094 -47.09375 -23.996094 -34.59375 C -23.996094 -26.996094 -20.398438 -20.695312 -13.199219 -17.796875 C -13.199219 -6.597656 -4.5 0.199219 6.199219 0.199219 C 18.496094 0.199219 33.59375 -8.199219 43.195312 -15.398438 C 53.992188 -23.496094 71.089844 -44.894531 85.988281 -58.792969 C 88.085938 -60.792969 98.386719 -69.488281 101.085938 -69.488281 C 101.585938 -69.488281 102.183594 -69.191406 102.183594 -68.589844 C 102.183594 -66.988281 94.386719 -58.292969 93.085938 -56.792969 C 87.386719 -50.292969 81.789062 -43.792969 76.1875 -37.195312 C 70.988281 -30.894531 55.59375 -13.496094 55.59375 -4.800781 C 55.59375 -3 55.992188 0 58.390625 0 C 62.289062 0 68.589844 -8.296875 70.890625 -11 C 74.289062 -14.996094 77.6875 -19.195312 81.089844 -23.296875 C 90.6875 -34.996094 100.386719 -46.792969 111.082031 -57.492188 C 113.582031 -59.992188 125.78125 -72.1875 128.480469 -72.1875 C 129.179688 -72.1875 129.582031 -71.6875 129.582031 -70.988281 C 129.582031 -67.691406 83.886719 -28.296875 83.886719 -6.300781 C 83.886719 -3.300781 85.289062 0.101562 88.785156 0.101562 C 93.984375 0.101562 104.785156 -9.597656 108.285156 -13.296875 C 108.683594 -13.796875 112.382812 -17.597656 112.382812 -18.199219 C 112.382812 -18.496094 112.285156 -18.695312 111.984375 -18.695312 C 111.183594 -18.695312 98.085938 -3.398438 92.285156 -3.398438 C 90.785156 -3.398438 90.585938 -4.898438 90.585938 -6.097656 C 90.585938 -9.097656 95.386719 -18.796875 96.785156 -21.796875 C 104.382812 -37.792969 116.183594 -51.792969 127.382812 -65.492188 C 128.582031 -66.890625 131.28125 -69.589844 131.28125 -71.589844 Z M 51.191406 -49.894531 C 51.191406 -41.792969 43.394531 -32.996094 37.09375 -28.695312 C 27.394531 -22.195312 13.496094 -16.796875 1.699219 -16.796875 C -2.898438 -16.796875 -7.199219 -17.496094 -11.597656 -18.695312 C -9.296875 -31.394531 -5.398438 -38.394531 4.398438 -46.992188 C 13.097656 -54.691406 25.296875 -60.089844 36.996094 -60.089844 C 43.695312 -60.089844 51.191406 -57.890625 51.191406 -49.894531 Z M 51.191406 -49.894531 "/></g></g></g><g clip-path="url(#0f6423e3a5)"><path fill="#ffffff" d="M 393.238281 389.152344 C 386.0625 389.152344 380.238281 394.976562 380.238281 402.152344 C 380.238281 416.753906 394.964844 420.582031 405 435.015625 C 414.484375 420.671875 429.761719 416.285156 429.761719 402.152344 C 429.761719 394.976562 423.9375 389.152344 416.757812 389.152344 C 411.554688 389.152344 407.074219 392.226562 405 396.648438 C 402.921875 392.226562 398.441406 389.152344 393.238281 389.152344 Z M 393.238281 389.152344 " fill-opacity="1" fill-rule="nonzero"/></g></svg>