<svg xmlns="http://www.w3.org/2000/svg" xmlns:xlink="http://www.w3.org/1999/xlink" width="1080" zoomAndPan="magnify" viewBox="0 0 810 809.999993" height="1080" preserveAspectRatio="xMidYMid meet" version="1.0"><defs><clipPath id="c939256b80"><path d="M 320.128906 256.390625 L 642.503906 256.390625 L 642.503906 554.828125 L 320.128906 554.828125 Z M 320.128906 256.390625 " clip-rule="nonzero"/></clipPath><clipPath id="0bb02fd360"><path d="M 167.40625 255.328125 L 489.78125 255.328125 L 489.78125 553.765625 L 167.40625 553.765625 Z M 167.40625 255.328125 " clip-rule="nonzero"/></clipPath></defs><g clip-path="url(#c939256b80)"><path fill="#d9d9d9" d="M 404.886719 256.425781 C 358.207031 256.425781 320.328125 294.308594 320.328125 340.984375 C 320.328125 435.941406 416.109375 460.839844 481.382812 554.710938 C 543.089844 461.417969 642.4375 432.90625 642.4375 340.984375 C 642.4375 294.308594 604.554688 256.425781 557.878906 256.425781 C 524.023438 256.425781 494.882812 276.417969 481.382812 305.179688 C 467.878906 276.417969 438.742188 256.425781 404.886719 256.425781 Z M 404.886719 256.425781 " fill-opacity="1" fill-rule="nonzero"/></g><g clip-path="url(#0bb02fd360)"><path fill="#f0394c" d="M 252.164062 255.363281 C 205.484375 255.363281 167.605469 293.242188 167.605469 339.917969 C 167.605469 434.878906 263.386719 459.773438 328.660156 553.648438 C 390.367188 460.351562 489.714844 431.84375 489.714844 339.917969 C 489.714844 293.242188 451.832031 255.363281 405.15625 255.363281 C 371.300781 255.363281 342.160156 275.351562 328.660156 304.113281 C 315.15625 275.351562 286.019531 255.363281 252.164062 255.363281 Z M 252.164062 255.363281 " fill-opacity="1" fill-rule="nonzero"/></g></svg>